<svg xmlns="http://www.w3.org/2000/svg" viewBox="0 0 980 260" width="980" height="260" role="img" aria-label="contribution activity, last 30 days">
<path d="M8.0,230.0L41.2,230.0L74.5,230.0L107.7,230.0L141.0,230.0L174.2,230.0L207.4,230.0L240.7,230.0L273.9,230.0L307.2,230.0L340.4,230.0L373.7,230.0L406.9,230.0L440.1,16.0L473.4,230.0L506.6,230.0L539.9,230.0L573.1,230.0L606.3,123.0L639.6,230.0L672.8,230.0L706.1,230.0L739.3,230.0L772.6,230.0L805.8,230.0L839.0,230.0L872.3,230.0L905.5,123.0L938.8,16.0L972.0,230.0L972.0,230L8.0,230Z" fill="#3178c6" fill-opacity="0.3"/>
<path d="M8.0,230.0L41.2,230.0L74.5,230.0L107.7,230.0L141.0,230.0L174.2,230.0L207.4,230.0L240.7,230.0L273.9,230.0L307.2,230.0L340.4,230.0L373.7,230.0L406.9,230.0L440.1,16.0L473.4,230.0L506.6,230.0L539.9,230.0L573.1,230.0L606.3,123.0L639.6,230.0L672.8,230.0L706.1,230.0L739.3,230.0L772.6,230.0L805.8,230.0L839.0,230.0L872.3,230.0L905.5,123.0L938.8,16.0L972.0,230.0" fill="none" stroke="#3178c6" stroke-width="1.5"/>
<circle cx="8.0" cy="230.0" r="1.5" fill="#8b949e"/><circle cx="41.2" cy="230.0" r="1.5" fill="#8b949e"/><circle cx="74.5" cy="230.0" r="1.5" fill="#8b949e"/><circle cx="107.7" cy="230.0" r="1.5" fill="#8b949e"/><circle cx="141.0" cy="230.0" r="1.5" fill="#8b949e"/><circle cx="174.2" cy="230.0" r="1.5" fill="#8b949e"/><circle cx="207.4" cy="230.0" r="1.5" fill="#8b949e"/><circle cx="240.7" cy="230.0" r="1.5" fill="#8b949e"/><circle cx="273.9" cy="230.0" r="1.5" fill="#8b949e"/><circle cx="307.2" cy="230.0" r="1.5" fill="#8b949e"/><circle cx="340.4" cy="230.0" r="1.5" fill="#8b949e"/><circle cx="373.7" cy="230.0" r="1.5" fill="#8b949e"/><circle cx="406.9" cy="230.0" r="1.5" fill="#8b949e"/><circle cx="440.1" cy="16.0" r="1.5" fill="#8b949e"/><circle cx="473.4" cy="230.0" r="1.5" fill="#8b949e"/><circle cx="506.6" cy="230.0" r="1.5" fill="#8b949e"/><circle cx="539.9" cy="230.0" r="1.5" fill="#8b949e"/><circle cx="573.1" cy="230.0" r="1.5" fill="#8b949e"/><circle cx="606.3" cy="123.0" r="1.5" fill="#8b949e"/><circle cx="639.6" cy="230.0" r="1.5" fill="#8b949e"/><circle cx="672.8" cy="230.0" r="1.5" fill="#8b949e"/><circle cx="706.1" cy="230.0" r="1.5" fill="#8b949e"/><circle cx="739.3" cy="230.0" r="1.5" fill="#8b949e"/><circle cx="772.6" cy="230.0" r="1.5" fill="#8b949e"/><circle cx="805.8" cy="230.0" r="1.5" fill="#8b949e"/><circle cx="839.0" cy="230.0" r="1.5" fill="#8b949e"/><circle cx="872.3" cy="230.0" r="1.5" fill="#8b949e"/><circle cx="905.5" cy="123.0" r="1.5" fill="#8b949e"/><circle cx="938.8" cy="16.0" r="1.5" fill="#8b949e"/><circle cx="972.0" cy="230.0" r="1.5" fill="#8b949e"/>
<line x1="8" y1="230" x2="972" y2="230" stroke="#8b949e" stroke-opacity="0.35"/>
<text x="839.0" y="252" text-anchor="middle" font-size="11" font-family="Segoe UI,Helvetica,Arial,sans-serif" fill="#8b949e">Sep</text>
</svg>